<?xml version="1.0" encoding="UTF-8" standalone="no"?><svg xmlns="http://www.w3.org/2000/svg" xmlns:xlink="http://www.w3.org/1999/xlink" contentScriptType="application/ecmascript" contentStyleType="text/css" height="682px" preserveAspectRatio="none" style="width:796px;height:682px;" version="1.1" viewBox="0 0 796 682" width="796px" zoomAndPan="magnify"><defs><filter height="300%" id="fjaxmcd" width="300%" x="-1" y="-1"><feGaussianBlur result="blurOut" stdDeviation="2.0"/><feColorMatrix in="blurOut" result="blurOut2" type="matrix" values="0 0 0 0 0 0 0 0 0 0 0 0 0 0 0 0 0 0 .4 0"/><feOffset dx="4.0" dy="4.0" in="blurOut2" result="blurOut3"/><feBlend in="SourceGraphic" in2="blurOut3" mode="normal"/></filter></defs><g><rect fill="#FFFFFF" filter="url(#fjaxmcd)" height="266.2344" style="stroke: #000000; stroke-width: 2.0;" width="230" x="284.5" y="10.8018"/><path d="M372.5,11.8018 L372.5,20.0986 L362.5,30.0986 L284.5,30.0986 " fill="none" style="stroke: #000000; stroke-width: 2.0;"/><text fill="#000000" font-family="sans-serif" font-size="14" lengthAdjust="spacingAndGlyphs" textLength="78" x="287.5" y="24.7969">Stage Build</text><ellipse cx="399.5" cy="57.0986" fill="#000000" filter="url(#fjaxmcd)" rx="10" ry="10" style="stroke: none; stroke-width: 1.0;"/><rect fill="#FEFECE" filter="url(#fjaxmcd)" height="33.9688" rx="12.5" ry="12.5" style="stroke: #A80036; stroke-width: 1.5;" width="79" x="360" y="102.0986"/><text fill="#000000" font-family="sans-serif" font-size="12" lengthAdjust="spacingAndGlyphs" textLength="59" x="370" y="123.2373">Checkout</text><rect fill="#000000" filter="url(#fjaxmcd)" height="6" rx="2.5" ry="2.5" style="stroke: #000000; stroke-width: 1.0;" width="210" x="294.5" y="171.0674"/><rect fill="#FEFECE" filter="url(#fjaxmcd)" height="33.9688" rx="12.5" ry="12.5" style="stroke: #A80036; stroke-width: 1.5;" width="104" x="308.5" y="197.0674"/><text fill="#000000" font-family="sans-serif" font-size="12" lengthAdjust="spacingAndGlyphs" textLength="84" x="318.5" y="218.2061">NexusIQTests</text><rect fill="#FEFECE" filter="url(#fjaxmcd)" height="33.9688" rx="12.5" ry="12.5" style="stroke: #A80036; stroke-width: 1.5;" width="50" x="440.5" y="197.0674"/><text fill="#000000" font-family="sans-serif" font-size="12" lengthAdjust="spacingAndGlyphs" textLength="30" x="450.5" y="218.2061">Build</text><rect fill="#000000" filter="url(#fjaxmcd)" height="6" rx="2.5" ry="2.5" style="stroke: #000000; stroke-width: 1.0;" width="210" x="294.5" y="251.0361"/><rect fill="#FFFFFF" filter="url(#fjaxmcd)" height="387.2031" style="stroke: #000000; stroke-width: 2.0;" width="779" x="10" y="287.8379"/><path d="M312,288.8379 L312,297.1348 L302,307.1348 L10,307.1348 " fill="none" style="stroke: #000000; stroke-width: 2.0;"/><text fill="#000000" font-family="sans-serif" font-size="14" lengthAdjust="spacingAndGlyphs" textLength="292" x="13" y="301.833">Stage Qualitätssicherung und Deployment</text><rect fill="#000000" filter="url(#fjaxmcd)" height="6" rx="2.5" ry="2.5" style="stroke: #000000; stroke-width: 1.0;" width="759" x="20" y="324.1348"/><rect fill="#FEFECE" filter="url(#fjaxmcd)" height="33.9688" rx="12.5" ry="12.5" style="stroke: #A80036; stroke-width: 1.5;" width="150" x="167.5" y="350.1348"/><text fill="#000000" font-family="sans-serif" font-size="12" lengthAdjust="spacingAndGlyphs" textLength="130" x="177.5" y="371.2734">Docker Image bauen</text><rect fill="#000000" filter="url(#fjaxmcd)" height="6" rx="2.5" ry="2.5" style="stroke: #000000; stroke-width: 1.0;" width="417" x="34" y="419.1035"/><rect fill="#FEFECE" filter="url(#fjaxmcd)" height="33.9688" rx="12.5" ry="12.5" style="stroke: #A80036; stroke-width: 1.5;" width="104" x="48" y="445.1035"/><text fill="#000000" font-family="sans-serif" font-size="12" lengthAdjust="spacingAndGlyphs" textLength="84" x="58" y="466.2422">Deploy Image</text><rect fill="#FEFECE" filter="url(#fjaxmcd)" height="33.9688" rx="12.5" ry="12.5" style="stroke: #A80036; stroke-width: 1.5;" width="51" x="180" y="445.1035"/><text fill="#000000" font-family="sans-serif" font-size="12" lengthAdjust="spacingAndGlyphs" textLength="31" x="190" y="466.2422">UATs</text><rect fill="#FEFECE" filter="url(#fjaxmcd)" height="33.9688" rx="12.5" ry="12.5" style="stroke: #A80036; stroke-width: 1.5;" width="178" x="259" y="445.1035"/><text fill="#000000" font-family="sans-serif" font-size="12" lengthAdjust="spacingAndGlyphs" textLength="158" x="269" y="466.2422">Contrast Sicherheitsscan</text><rect fill="#000000" filter="url(#fjaxmcd)" height="6" rx="2.5" ry="2.5" style="stroke: #000000; stroke-width: 1.0;" width="417" x="34" y="499.0723"/><rect fill="#FEFECE" filter="url(#fjaxmcd)" height="33.9688" rx="12.5" ry="12.5" style="stroke: #A80036; stroke-width: 1.5;" width="83" x="494.5" y="376.1348"/><text fill="#000000" font-family="sans-serif" font-size="12" lengthAdjust="spacingAndGlyphs" textLength="63" x="504.5" y="397.2734">Unit Tests</text><rect fill="#FEFECE" filter="url(#fjaxmcd)" height="33.9688" rx="12.5" ry="12.5" style="stroke: #A80036; stroke-width: 1.5;" width="114" x="479" y="445.1035"/><text fill="#000000" font-family="sans-serif" font-size="12" lengthAdjust="spacingAndGlyphs" textLength="94" x="489" y="466.2422">Mutationstests</text><rect fill="#FEFECE" filter="url(#fjaxmcd)" height="33.9688" rx="12.5" ry="12.5" style="stroke: #A80036; stroke-width: 1.5;" width="144" x="621" y="410.6191"/><text fill="#000000" font-family="sans-serif" font-size="12" lengthAdjust="spacingAndGlyphs" textLength="124" x="631" y="431.7578">Kompatibilitätstests</text><rect fill="#000000" filter="url(#fjaxmcd)" height="6" rx="2.5" ry="2.5" style="stroke: #000000; stroke-width: 1.0;" width="759" x="20" y="525.0723"/><rect fill="#FEFECE" filter="url(#fjaxmcd)" height="33.9688" rx="12.5" ry="12.5" style="stroke: #A80036; stroke-width: 1.5;" width="87" x="356" y="566.0723"/><text fill="#000000" font-family="sans-serif" font-size="12" lengthAdjust="spacingAndGlyphs" textLength="67" x="366" y="587.2109">Sonarscan</text><ellipse cx="399.5" cy="645.041" fill="none" filter="url(#fjaxmcd)" rx="10" ry="10" style="stroke: #000000; stroke-width: 1.0;"/><ellipse cx="400" cy="645.541" fill="#000000" filter="url(#fjaxmcd)" rx="6" ry="6" style="stroke: none; stroke-width: 1.0;"/><line style="stroke: #A80036; stroke-width: 1.5;" x1="399.5" x2="399.5" y1="67.0986" y2="102.0986"/><polygon fill="#A80036" points="395.5,92.0986,399.5,102.0986,403.5,92.0986,399.5,96.0986" style="stroke: #A80036; stroke-width: 1.0;"/><line style="stroke: #A80036; stroke-width: 1.5;" x1="360.5" x2="360.5" y1="177.0674" y2="197.0674"/><polygon fill="#A80036" points="356.5,187.0674,360.5,197.0674,364.5,187.0674,360.5,191.0674" style="stroke: #A80036; stroke-width: 1.0;"/><line style="stroke: #A80036; stroke-width: 1.5;" x1="465.5" x2="465.5" y1="177.0674" y2="197.0674"/><polygon fill="#A80036" points="461.5,187.0674,465.5,197.0674,469.5,187.0674,465.5,191.0674" style="stroke: #A80036; stroke-width: 1.0;"/><line style="stroke: #A80036; stroke-width: 1.5;" x1="465.5" x2="465.5" y1="231.0361" y2="251.0361"/><polygon fill="#A80036" points="461.5,241.0361,465.5,251.0361,469.5,241.0361,465.5,245.0361" style="stroke: #A80036; stroke-width: 1.0;"/><line style="stroke: #A80036; stroke-width: 1.5;" x1="399.5" x2="399.5" y1="136.0674" y2="171.0674"/><polygon fill="#A80036" points="395.5,161.0674,399.5,171.0674,403.5,161.0674,399.5,165.0674" style="stroke: #A80036; stroke-width: 1.0;"/><line style="stroke: #A80036; stroke-width: 1.5;" x1="100" x2="100" y1="425.1035" y2="445.1035"/><polygon fill="#A80036" points="96,435.1035,100,445.1035,104,435.1035,100,439.1035" style="stroke: #A80036; stroke-width: 1.0;"/><line style="stroke: #A80036; stroke-width: 1.5;" x1="205.5" x2="205.5" y1="425.1035" y2="445.1035"/><polygon fill="#A80036" points="201.5,435.1035,205.5,445.1035,209.5,435.1035,205.5,439.1035" style="stroke: #A80036; stroke-width: 1.0;"/><line style="stroke: #A80036; stroke-width: 1.5;" x1="348" x2="348" y1="425.1035" y2="445.1035"/><polygon fill="#A80036" points="344,435.1035,348,445.1035,352,435.1035,348,439.1035" style="stroke: #A80036; stroke-width: 1.0;"/><line style="stroke: #A80036; stroke-width: 1.5;" x1="205.5" x2="205.5" y1="479.0723" y2="499.0723"/><polygon fill="#A80036" points="201.5,489.0723,205.5,499.0723,209.5,489.0723,205.5,493.0723" style="stroke: #A80036; stroke-width: 1.0;"/><line style="stroke: #A80036; stroke-width: 1.5;" x1="348" x2="348" y1="479.0723" y2="499.0723"/><polygon fill="#A80036" points="344,489.0723,348,499.0723,352,489.0723,348,493.0723" style="stroke: #A80036; stroke-width: 1.0;"/><line style="stroke: #A80036; stroke-width: 1.5;" x1="242.5" x2="242.5" y1="384.1035" y2="419.1035"/><polygon fill="#A80036" points="238.5,409.1035,242.5,419.1035,246.5,409.1035,242.5,413.1035" style="stroke: #A80036; stroke-width: 1.0;"/><line style="stroke: #A80036; stroke-width: 1.5;" x1="536" x2="536" y1="410.1035" y2="445.1035"/><polygon fill="#A80036" points="532,435.1035,536,445.1035,540,435.1035,536,439.1035" style="stroke: #A80036; stroke-width: 1.0;"/><line style="stroke: #A80036; stroke-width: 1.5;" x1="242.5" x2="242.5" y1="330.1348" y2="350.1348"/><polygon fill="#A80036" points="238.5,340.1348,242.5,350.1348,246.5,340.1348,242.5,344.1348" style="stroke: #A80036; stroke-width: 1.0;"/><line style="stroke: #A80036; stroke-width: 1.5;" x1="536" x2="536" y1="330.1348" y2="376.1348"/><polygon fill="#A80036" points="532,366.1348,536,376.1348,540,366.1348,536,370.1348" style="stroke: #A80036; stroke-width: 1.0;"/><line style="stroke: #A80036; stroke-width: 1.5;" x1="693" x2="693" y1="330.1348" y2="410.6191"/><polygon fill="#A80036" points="689,400.6191,693,410.6191,697,400.6191,693,404.6191" style="stroke: #A80036; stroke-width: 1.0;"/><line style="stroke: #A80036; stroke-width: 1.5;" x1="242.5" x2="242.5" y1="505.0723" y2="525.0723"/><polygon fill="#A80036" points="238.5,515.0723,242.5,525.0723,246.5,515.0723,242.5,519.0723" style="stroke: #A80036; stroke-width: 1.0;"/><line style="stroke: #A80036; stroke-width: 1.5;" x1="536" x2="536" y1="479.0723" y2="525.0723"/><polygon fill="#A80036" points="532,515.0723,536,525.0723,540,515.0723,536,519.0723" style="stroke: #A80036; stroke-width: 1.0;"/><line style="stroke: #A80036; stroke-width: 1.5;" x1="693" x2="693" y1="444.5879" y2="525.0723"/><polygon fill="#A80036" points="689,515.0723,693,525.0723,697,515.0723,693,519.0723" style="stroke: #A80036; stroke-width: 1.0;"/><line style="stroke: #A80036; stroke-width: 1.5;" x1="399.5" x2="399.5" y1="531.0723" y2="566.0723"/><polygon fill="#A80036" points="395.5,556.0723,399.5,566.0723,403.5,556.0723,399.5,560.0723" style="stroke: #A80036; stroke-width: 1.0;"/><line style="stroke: #A80036; stroke-width: 1.5;" x1="399.5" x2="399.5" y1="600.041" y2="635.041"/><polygon fill="#A80036" points="395.5,625.041,399.5,635.041,403.5,625.041,399.5,629.041" style="stroke: #A80036; stroke-width: 1.0;"/><line style="stroke: #A80036; stroke-width: 1.5;" x1="399.5" x2="399.5" y1="257.0361" y2="324.1348"/><polygon fill="#A80036" points="395.5,314.1348,399.5,324.1348,403.5,314.1348,399.5,318.1348" style="stroke: #A80036; stroke-width: 1.0;"/></g></svg>