<?xml version="1.0" encoding="UTF-8" standalone="no"?><svg xmlns="http://www.w3.org/2000/svg" xmlns:xlink="http://www.w3.org/1999/xlink" contentScriptType="application/ecmascript" contentStyleType="text/css" height="289px" preserveAspectRatio="none" style="width:471px;height:289px;" version="1.1" viewBox="0 0 471 289" width="471px" zoomAndPan="magnify"><defs><filter height="300%" id="f5e3mpl" width="300%" x="-1" y="-1"><feGaussianBlur result="blurOut" stdDeviation="2.0"/><feColorMatrix in="blurOut" result="blurOut2" type="matrix" values="0 0 0 0 0 0 0 0 0 0 0 0 0 0 0 0 0 0 .4 0"/><feOffset dx="4.0" dy="4.0" in="blurOut2" result="blurOut3"/><feBlend in="SourceGraphic" in2="blurOut3" mode="normal"/></filter></defs><g><rect fill="#FEFECE" filter="url(#f5e3mpl)" height="50" rx="12.5" ry="12.5" style="stroke: #A80036; stroke-width: 1.5;" width="63" x="82.773" y="8"/><line style="stroke: #A80036; stroke-width: 1.5;" x1="82.773" x2="145.773" y1="34.2969" y2="34.2969"/><text fill="#000000" font-family="sans-serif" font-size="14" lengthAdjust="spacingAndGlyphs" textLength="43" x="92.773" y="25.9951">Empty</text><ellipse cx="172.273" cy="272" fill="none" filter="url(#f5e3mpl)" rx="10" ry="10" style="stroke: #000000; stroke-width: 1.0;"/><ellipse cx="172.773" cy="272.5" fill="#000000" rx="6" ry="6" style="stroke: none; stroke-width: 1.0;"/><rect fill="#FEFECE" filter="url(#f5e3mpl)" height="50" rx="12.5" ry="12.5" style="stroke: #A80036; stroke-width: 1.5;" width="91" x="214.773" y="135"/><line style="stroke: #A80036; stroke-width: 1.5;" x1="214.773" x2="305.773" y1="161.2969" y2="161.2969"/><text fill="#000000" font-family="sans-serif" font-size="14" lengthAdjust="spacingAndGlyphs" textLength="71" x="224.773" y="152.9951">Not Empty</text><path d="M82.6055,54.2056 C43.8064,82.9675 -13.6532,136.3499 13.273,185 C43.7912,240.1402 123.8795,262.2531 157.2942,269.2665 " fill="none" style="stroke: #A80036; stroke-width: 1.0;"/><polygon fill="#A80036" points="162.2416,270.2652,154.2111,264.5633,157.3405,269.2758,152.628,272.4051,162.2416,270.2652" style="stroke: #A80036; stroke-width: 1.0;"/><text fill="#000000" font-family="sans-serif" font-size="13" lengthAdjust="spacingAndGlyphs" textLength="56" x="14.273" y="164.5669">enqueue</text><path d="M117.8253,58.2706 C123.5963,96.5083 136.4029,171.071 156.273,232 C159.0992,240.6663 162.8608,250.1469 166.0266,257.7022 " fill="none" style="stroke: #A80036; stroke-width: 1.0;"/><polygon fill="#A80036" points="168.1043,262.5916,168.2658,252.7441,166.1488,257.9899,160.903,255.8729,168.1043,262.5916" style="stroke: #A80036; stroke-width: 1.0;"/><text fill="#000000" font-family="sans-serif" font-size="13" lengthAdjust="spacingAndGlyphs" textLength="51" x="143.273" y="164.5669">isEmpty</text><path d="M143.1179,58.0911 C167.4139,79.2253 202.1624,109.4518 227.5045,131.496 " fill="none" style="stroke: #A80036; stroke-width: 1.0;"/><polygon fill="#A80036" points="231.488,134.961,227.3229,126.0362,227.7156,131.6794,222.0724,132.0721,231.488,134.961" style="stroke: #A80036; stroke-width: 1.0;"/><text fill="#000000" font-family="sans-serif" font-size="13" lengthAdjust="spacingAndGlyphs" textLength="56" x="196.273" y="101.0669">enqueue</text><path d="M214.4951,176.2421 C197.1233,184.902 179.1585,197.4744 169.273,215 C161.9459,227.9899 164.2707,245.4066 167.4312,257.5556 " fill="none" style="stroke: #A80036; stroke-width: 1.0;"/><polygon fill="#A80036" points="168.8112,262.4116,170.1985,252.6609,167.4444,257.6021,162.5032,254.8479,168.8112,262.4116" style="stroke: #A80036; stroke-width: 1.0;"/><text fill="#000000" font-family="sans-serif" font-size="13" lengthAdjust="spacingAndGlyphs" textLength="57" x="170.273" y="228.0669">compare</text><path d="M254.5375,185.2784 C250.2433,200.0535 243.1934,218.4081 232.273,232 C219.8421,247.4718 199.798,259.1208 186.3369,265.7485 " fill="none" style="stroke: #A80036; stroke-width: 1.0;"/><polygon fill="#A80036" points="181.7017,267.9608,191.5469,267.6941,186.2141,265.8071,188.101,260.4742,181.7017,267.9608" style="stroke: #A80036; stroke-width: 1.0;"/><text fill="#000000" font-family="sans-serif" font-size="13" lengthAdjust="spacingAndGlyphs" textLength="51" x="243.273" y="228.0669">isEmpty</text><path d="M290.4053,185.1006 C303.7775,199.3022 314.2742,217.1381 303.273,232 C289.2968,250.8807 218.8679,264.4432 187.4465,269.6506 " fill="none" style="stroke: #A80036; stroke-width: 1.0;"/><polygon fill="#A80036" points="182.4033,270.4699,191.9283,272.9748,187.3386,269.668,190.6453,265.0783,182.4033,270.4699" style="stroke: #A80036; stroke-width: 1.0;"/><text fill="#000000" font-family="sans-serif" font-size="13" lengthAdjust="spacingAndGlyphs" textLength="21" x="308.273" y="228.0669">top</text><path d="M305.7885,154.2386 C324.7228,153.8412 340.773,155.7617 340.773,160 C340.773,163.8409 327.5911,165.7783 311.0269,165.8121 " fill="none" style="stroke: #A80036; stroke-width: 1.0;"/><polygon fill="#A80036" points="305.7885,165.7614,314.7493,169.8484,310.7883,165.8098,314.8268,161.8488,305.7885,165.7614" style="stroke: #A80036; stroke-width: 1.0;"/><text fill="#000000" font-family="sans-serif" font-size="13" lengthAdjust="spacingAndGlyphs" textLength="56" x="346.773" y="164.5669">enqueue</text><path d="M306.0641,150.5605 C352.2552,145.7432 408.773,148.8896 408.773,160 C408.773,170.6981 356.3721,174.0123 311.2457,169.9429 " fill="none" style="stroke: #A80036; stroke-width: 1.0;"/><polygon fill="#A80036" points="306.0641,169.4395,314.6351,174.2912,311.0407,169.9231,315.4088,166.3287,306.0641,169.4395" style="stroke: #A80036; stroke-width: 1.0;"/><text fill="#000000" font-family="sans-serif" font-size="13" lengthAdjust="spacingAndGlyphs" textLength="56" x="414.773" y="164.5669">dequeue</text></g></svg>