<?xml version="1.0" encoding="UTF-8" standalone="no"?><svg xmlns="http://www.w3.org/2000/svg" xmlns:xlink="http://www.w3.org/1999/xlink" contentScriptType="application/ecmascript" contentStyleType="text/css" height="289px" preserveAspectRatio="none" style="width:471px;height:289px;" version="1.1" viewBox="0 0 471 289" width="471px" zoomAndPan="magnify"><defs><filter height="300%" id="f8v01td" width="300%" x="-1" y="-1"><feGaussianBlur result="blurOut" stdDeviation="2.0"/><feColorMatrix in="blurOut" result="blurOut2" type="matrix" values="0 0 0 0 0 0 0 0 0 0 0 0 0 0 0 0 0 0 .4 0"/><feOffset dx="4.0" dy="4.0" in="blurOut2" result="blurOut3"/><feBlend in="SourceGraphic" in2="blurOut3" mode="normal"/></filter></defs><g><rect fill="#FEFECE" filter="url(#f8v01td)" height="50" rx="12.5" ry="12.5" style="stroke: #A80036; stroke-width: 1.5;" width="63" x="82.7241" y="8"/><line style="stroke: #A80036; stroke-width: 1.5;" x1="82.7241" x2="145.7241" y1="34.2969" y2="34.2969"/><text fill="#000000" font-family="sans-serif" font-size="14" lengthAdjust="spacingAndGlyphs" textLength="43" x="92.7241" y="25.9951">Empty</text><ellipse cx="172.224" cy="272" fill="none" filter="url(#f8v01td)" rx="10" ry="10" style="stroke: #000000; stroke-width: 1.0;"/><ellipse cx="172.724" cy="272.5" fill="#000000" rx="6" ry="6" style="stroke: none; stroke-width: 1.0;"/><rect fill="#FEFECE" filter="url(#f8v01td)" height="50" rx="12.5" ry="12.5" style="stroke: #A80036; stroke-width: 1.5;" width="91" x="214.724" y="135"/><line style="stroke: #A80036; stroke-width: 1.5;" x1="214.724" x2="305.724" y1="161.2969" y2="161.2969"/><text fill="#000000" font-family="sans-serif" font-size="14" lengthAdjust="spacingAndGlyphs" textLength="71" x="224.724" y="152.9951">Not Empty</text><path d="M82.593,55.037 C43.8347,83.577 -13.5793,136.572 13.2241,185 C43.6618,239.9948 123.796,261.5777 157.234,268.3673 " fill="none" style="stroke: #A80036; stroke-width: 1.0;"/><polygon fill="#A80036" points="162.185,269.3328,154.1171,263.6839,157.2775,268.3757,152.5857,271.536,162.185,269.3328" style="stroke: #A80036; stroke-width: 1.0;"/><text fill="#000000" font-family="sans-serif" font-size="13" lengthAdjust="spacingAndGlyphs" textLength="56" x="14.2241" y="164.5669">enqueue</text><path d="M117.802,58.205 C123.754,95.956 137.066,170.865 157.224,232 C160.067,240.6205 163.714,250.131 166.7,257.6022 " fill="none" style="stroke: #A80036; stroke-width: 1.0;"/><polygon fill="#A80036" points="168.644,262.4127,168.9807,252.5696,166.7707,257.7769,161.5634,255.5669,168.644,262.4127" style="stroke: #A80036; stroke-width: 1.0;"/><text fill="#000000" font-family="sans-serif" font-size="13" lengthAdjust="spacingAndGlyphs" textLength="51" x="145.224" y="164.5669">isEmpty</text><path d="M142.374,58.101 C166.915,79.112 202.496,109.575 228.134,131.526 " fill="none" style="stroke: #A80036; stroke-width: 1.0;"/><polygon fill="#A80036" points="232.16,134.973,227.9254,126.081,228.3621,131.7209,222.7221,132.1576,232.16,134.973" style="stroke: #A80036; stroke-width: 1.0;"/><text fill="#000000" font-family="sans-serif" font-size="13" lengthAdjust="spacingAndGlyphs" textLength="56" x="197.224" y="101.0669">enqueue</text><path d="M214.469,176.755 C197.1,185.2264 179.132,197.599 169.224,215 C161.871,227.9132 164.352,245.3338 167.555,257.2973 " fill="none" style="stroke: #A80036; stroke-width: 1.0;"/><polygon fill="#A80036" points="169.044,262.3743,170.3488,252.6123,167.6365,257.5765,162.6723,254.8642,169.044,262.3743" style="stroke: #A80036; stroke-width: 1.0;"/><text fill="#000000" font-family="sans-serif" font-size="13" lengthAdjust="spacingAndGlyphs" textLength="57" x="170.224" y="228.0669">compare</text><path d="M254.669,185.303 C250.389,200.002 243.29,218.4555 232.224,232 C219.623,247.4237 199.275,258.824 185.824,265.1916 " fill="none" style="stroke: #A80036; stroke-width: 1.0;"/><polygon fill="#A80036" points="181.207,267.308,191.0552,267.1924,185.7519,265.2238,187.7205,259.9206,181.207,267.308" style="stroke: #A80036; stroke-width: 1.0;"/><text fill="#000000" font-family="sans-serif" font-size="13" lengthAdjust="spacingAndGlyphs" textLength="51" x="244.224" y="228.0669">isEmpty</text><path d="M290.234,185.0201 C304.162,199.1036 315.422,217.0149 304.224,232 C276.733,268.7881 216.124,272.3205 187.616,271.7958 " fill="none" style="stroke: #A80036; stroke-width: 1.0;"/><polygon fill="#A80036" points="182.362,271.6454,191.244,275.9009,187.36,271.7883,191.4726,267.9042,182.362,271.6454" style="stroke: #A80036; stroke-width: 1.0;"/><text fill="#000000" font-family="sans-serif" font-size="13" lengthAdjust="spacingAndGlyphs" textLength="21" x="310.224" y="228.0669">top</text><path d="M305.74,154.239 C324.674,153.841 340.724,155.762 340.724,160 C340.724,163.841 327.542,165.778 310.978,165.812 " fill="none" style="stroke: #A80036; stroke-width: 1.0;"/><polygon fill="#A80036" points="305.74,165.761,314.7007,169.8482,310.7398,165.8096,314.7784,161.8486,305.74,165.761" style="stroke: #A80036; stroke-width: 1.0;"/><text fill="#000000" font-family="sans-serif" font-size="13" lengthAdjust="spacingAndGlyphs" textLength="56" x="346.724" y="164.5669">enqueue</text><path d="M306.015,150.561 C352.206,145.743 408.724,148.89 408.724,160 C408.724,170.698 356.323,174.012 311.197,169.943 " fill="none" style="stroke: #A80036; stroke-width: 1.0;"/><polygon fill="#A80036" points="306.015,169.439,314.5867,174.2894,310.9916,169.9218,315.3592,166.3267,306.015,169.439" style="stroke: #A80036; stroke-width: 1.0;"/><text fill="#000000" font-family="sans-serif" font-size="13" lengthAdjust="spacingAndGlyphs" textLength="56" x="414.724" y="164.5669">dequeue</text></g></svg>