<?xml version="1.0" encoding="UTF-8" standalone="no"?><svg xmlns="http://www.w3.org/2000/svg" xmlns:xlink="http://www.w3.org/1999/xlink" contentScriptType="application/ecmascript" contentStyleType="text/css" height="287px" preserveAspectRatio="none" style="width:634px;height:287px;" version="1.1" viewBox="0 0 634 287" width="634px" zoomAndPan="magnify"><defs><filter height="300%" id="f1d8bv8" width="300%" x="-1" y="-1"><feGaussianBlur result="blurOut" stdDeviation="2.0"/><feColorMatrix in="blurOut" result="blurOut2" type="matrix" values="0 0 0 0 0 0 0 0 0 0 0 0 0 0 0 0 0 0 .4 0"/><feOffset dx="4.0" dy="4.0" in="blurOut2" result="blurOut3"/><feBlend in="SourceGraphic" in2="blurOut3" mode="normal"/></filter></defs><g><rect fill="#FEFECE" filter="url(#f1d8bv8)" height="50" rx="12.5" ry="12.5" style="stroke: #A80036; stroke-width: 1.5;" width="220" x="405.5" y="8"/><line style="stroke: #A80036; stroke-width: 1.5;" x1="405.5" x2="625.5" y1="34.2969" y2="34.2969"/><text fill="#000000" font-family="sans-serif" font-size="14" lengthAdjust="spacingAndGlyphs" textLength="200" x="415.5" y="25.9951">Das System &lt;Systemname&gt;</text><rect fill="#FEFECE" filter="url(#f1d8bv8)" height="50" rx="12.5" ry="12.5" style="stroke: #A80036; stroke-width: 1.5;" width="149" x="441" y="118"/><line style="stroke: #A80036; stroke-width: 1.5;" x1="441" x2="590" y1="144.2969" y2="144.2969"/><text fill="#000000" font-family="sans-serif" font-size="14" lengthAdjust="spacingAndGlyphs" textLength="129" x="451" y="135.9951">muss | sollte | wird</text><rect fill="#FEFECE" filter="url(#f1d8bv8)" height="50" rx="12.5" ry="12.5" style="stroke: #A80036; stroke-width: 1.5;" width="239" x="6" y="8"/><line style="stroke: #A80036; stroke-width: 1.5;" x1="6" x2="245" y1="34.2969" y2="34.2969"/><text fill="#000000" font-family="sans-serif" font-size="14" lengthAdjust="spacingAndGlyphs" textLength="219" x="16" y="25.9951">&lt;wem?&gt; die Möglichkeit bieten</text><rect fill="#FEFECE" filter="url(#f1d8bv8)" height="50" rx="12.5" ry="12.5" style="stroke: #A80036; stroke-width: 1.5;" width="229" x="11" y="118"/><line style="stroke: #A80036; stroke-width: 1.5;" x1="11" x2="240" y1="144.2969" y2="144.2969"/><text fill="#000000" font-family="sans-serif" font-size="14" lengthAdjust="spacingAndGlyphs" textLength="209" x="21" y="135.9951">&lt;Objekt &amp; Objektergänzung&gt;</text><rect fill="#FEFECE" filter="url(#f1d8bv8)" height="50" rx="12.5" ry="12.5" style="stroke: #A80036; stroke-width: 1.5;" width="130" x="275.5" y="118"/><line style="stroke: #A80036; stroke-width: 1.5;" x1="275.5" x2="405.5" y1="144.2969" y2="144.2969"/><text fill="#000000" font-family="sans-serif" font-size="14" lengthAdjust="spacingAndGlyphs" textLength="110" x="285.5" y="135.9951">&lt;Prozesswort&gt;</text><rect fill="#FEFECE" filter="url(#f1d8bv8)" height="50" rx="12.5" ry="12.5" style="stroke: #A80036; stroke-width: 1.5;" width="50" x="490.5" y="228"/><line style="stroke: #A80036; stroke-width: 1.5;" x1="490.5" x2="540.5" y1="254.2969" y2="254.2969"/><text fill="#000000" font-family="sans-serif" font-size="14" lengthAdjust="spacingAndGlyphs" textLength="26" x="502.5" y="245.9951">leer</text><path d="M515.5,58.2362 C515.5,74.4464 515.5,95.5926 515.5,112.7087 " fill="none" style="stroke: #A80036; stroke-width: 1.0;"/><polygon fill="#A80036" points="515.5,117.8812,519.5,108.8812,515.5,112.8812,511.5,108.8812,515.5,117.8812" style="stroke: #A80036; stroke-width: 1.0;"/><path d="M515.5,168.2362 C515.5,184.4464 515.5,205.5926 515.5,222.7087 " fill="none" style="stroke: #A80036; stroke-width: 1.0;"/><polygon fill="#A80036" points="515.5,227.8812,519.5,218.8812,515.5,222.8812,511.5,218.8812,515.5,227.8812" style="stroke: #A80036; stroke-width: 1.0;"/><path d="M125.5,58.2362 C125.5,74.4464 125.5,95.5926 125.5,112.7087 " fill="none" style="stroke: #A80036; stroke-width: 1.0;"/><polygon fill="#A80036" points="125.5,117.8812,129.5,108.8812,125.5,112.8812,121.5,108.8812,125.5,117.8812" style="stroke: #A80036; stroke-width: 1.0;"/><path d="M240.1387,143 C250.154,143 260.1693,143 270.1846,143 " fill="none" style="stroke: #A80036; stroke-width: 1.0;"/><polygon fill="#A80036" points="275.422,143,266.422,139,270.422,143,266.422,147,275.422,143" style="stroke: #A80036; stroke-width: 1.0;"/></g></svg>