<?xml version="1.0" encoding="UTF-8" standalone="no"?><svg xmlns="http://www.w3.org/2000/svg" xmlns:xlink="http://www.w3.org/1999/xlink" contentScriptType="application/ecmascript" contentStyleType="text/css" height="346px" preserveAspectRatio="none" style="width:720px;height:346px;" version="1.1" viewBox="0 0 720 346" width="720px" zoomAndPan="magnify"><defs><filter height="300%" id="fj5qktq" width="300%" x="-1" y="-1"><feGaussianBlur result="blurOut" stdDeviation="2.0"/><feColorMatrix in="blurOut" result="blurOut2" type="matrix" values="0 0 0 0 0 0 0 0 0 0 0 0 0 0 0 0 0 0 .4 0"/><feOffset dx="4.0" dy="4.0" in="blurOut2" result="blurOut3"/><feBlend in="SourceGraphic" in2="blurOut3" mode="normal"/></filter></defs><g><polygon fill="#FBFB77" filter="url(#fj5qktq)" points="60.5,14.418,60.5,39.5508,260.5,39.5508,260.5,24.418,250.5,14.418,60.5,14.418" style="stroke: #A80036; stroke-width: 1.0;"/><line style="stroke: #A80036; stroke-width: 1.0;" x1="250.5" x2="250.5" y1="14.418" y2="24.418"/><line style="stroke: #A80036; stroke-width: 1.0;" x1="260.5" x2="250.5" y1="24.418" y2="24.418"/><text fill="#000000" font-family="sans-serif" font-size="13" lengthAdjust="spacingAndGlyphs" textLength="179" x="66.5" y="31.4849">Gegeben: Der Systemname</text><rect fill="#FEFECE" filter="url(#fj5qktq)" height="33.9688" rx="12.5" ry="12.5" style="stroke: #A80036; stroke-width: 1.5;" width="197" x="280.5" y="10"/><text fill="#000000" font-family="sans-serif" font-size="12" lengthAdjust="spacingAndGlyphs" textLength="177" x="290.5" y="31.1387">Das System &lt;Systemname&gt;</text><rect fill="#FEFECE" filter="url(#fj5qktq)" height="33.9688" rx="12.5" ry="12.5" style="stroke: #A80036; stroke-width: 1.5;" width="57" x="105" y="83.9688"/><text fill="#000000" font-family="sans-serif" font-size="12" lengthAdjust="spacingAndGlyphs" textLength="33" x="119" y="105.1074">muss</text><rect fill="#FEFECE" filter="url(#fj5qktq)" height="33.9688" rx="12.5" ry="12.5" style="stroke: #A80036; stroke-width: 1.5;" width="58" x="190" y="83.9688"/><text fill="#000000" font-family="sans-serif" font-size="12" lengthAdjust="spacingAndGlyphs" textLength="34" x="204" y="105.1074">sollte</text><polygon fill="#FBFB77" filter="url(#fj5qktq)" points="345,88.3867,345,113.5195,653,113.5195,653,98.3867,643,88.3867,345,88.3867" style="stroke: #A80036; stroke-width: 1.0;"/><line style="stroke: #A80036; stroke-width: 1.0;" x1="643" x2="643" y1="88.3867" y2="98.3867"/><line style="stroke: #A80036; stroke-width: 1.0;" x1="653" x2="643" y1="98.3867" y2="98.3867"/><text fill="#000000" font-family="sans-serif" font-size="13" lengthAdjust="spacingAndGlyphs" textLength="287" x="351" y="105.4536">Schritt 1: Rechtliche Verbindlichkeit festlegen</text><rect fill="#FEFECE" filter="url(#fj5qktq)" height="33.9688" rx="12.5" ry="12.5" style="stroke: #A80036; stroke-width: 1.5;" width="49" x="276" y="83.9688"/><text fill="#000000" font-family="sans-serif" font-size="12" lengthAdjust="spacingAndGlyphs" textLength="25" x="290" y="105.1074">wird</text><rect fill="#FEFECE" filter="url(#fj5qktq)" height="33.9688" rx="12.5" ry="12.5" style="stroke: #A80036; stroke-width: 1.5;" width="220" x="74.5" y="177.9375"/><text fill="#000000" font-family="sans-serif" font-size="12" lengthAdjust="spacingAndGlyphs" textLength="196" x="88.5" y="199.0762">&lt;wem?&gt; Die Möglichkeit bieten</text><polygon fill="#FBFB77" filter="url(#fj5qktq)" points="431.5,182.3555,431.5,207.4883,711.5,207.4883,711.5,192.3555,701.5,182.3555,431.5,182.3555" style="stroke: #A80036; stroke-width: 1.0;"/><line style="stroke: #A80036; stroke-width: 1.0;" x1="701.5" x2="701.5" y1="182.3555" y2="192.3555"/><line style="stroke: #A80036; stroke-width: 1.0;" x1="711.5" x2="701.5" y1="192.3555" y2="192.3555"/><text fill="#000000" font-family="sans-serif" font-size="13" lengthAdjust="spacingAndGlyphs" textLength="259" x="437.5" y="199.4224">Schritt 3: Art der Funktionalität festlegen</text><rect fill="#FEFECE" filter="url(#fj5qktq)" height="33.9688" rx="12.5" ry="12.5" style="stroke: #A80036; stroke-width: 1.5;" width="89" x="322.5" y="177.9375"/><text fill="#000000" font-family="sans-serif" font-size="12" lengthAdjust="spacingAndGlyphs" textLength="61" x="336.5" y="199.0762">fähig sein</text><polygon fill="#FBFB77" filter="url(#fj5qktq)" points="20,256.3242,20,281.457,229,281.457,229,266.3242,219,256.3242,20,256.3242" style="stroke: #A80036; stroke-width: 1.0;"/><line style="stroke: #A80036; stroke-width: 1.0;" x1="219" x2="219" y1="256.3242" y2="266.3242"/><line style="stroke: #A80036; stroke-width: 1.0;" x1="229" x2="219" y1="266.3242" y2="266.3242"/><text fill="#000000" font-family="sans-serif" font-size="13" lengthAdjust="spacingAndGlyphs" textLength="188" x="26" y="273.3911">Schritt 4: Objekt identifizieren</text><rect fill="#FEFECE" filter="url(#fj5qktq)" height="33.9688" rx="12.5" ry="12.5" style="stroke: #A80036; stroke-width: 1.5;" width="260" x="249" y="251.9063"/><text fill="#000000" font-family="sans-serif" font-size="12" lengthAdjust="spacingAndGlyphs" textLength="240" x="259" y="273.0449">[&lt;Objekt &amp; Ergänzung des Objektes&gt;]</text><polygon fill="#FBFB77" filter="url(#fj5qktq)" points="456.5,310.293,456.5,335.4258,710.5,335.4258,710.5,320.293,700.5,310.293,456.5,310.293" style="stroke: #A80036; stroke-width: 1.0;"/><line style="stroke: #A80036; stroke-width: 1.0;" x1="700.5" x2="700.5" y1="310.293" y2="320.293"/><line style="stroke: #A80036; stroke-width: 1.0;" x1="710.5" x2="700.5" y1="320.293" y2="320.293"/><text fill="#000000" font-family="sans-serif" font-size="13" lengthAdjust="spacingAndGlyphs" textLength="233" x="462.5" y="327.3599">Schritt 2: Funktionalität identifizieren</text><rect fill="#FEFECE" filter="url(#fj5qktq)" height="33.9688" rx="12.5" ry="12.5" style="stroke: #A80036; stroke-width: 1.5;" width="115" x="321.5" y="305.875"/><text fill="#000000" font-family="sans-serif" font-size="12" lengthAdjust="spacingAndGlyphs" textLength="95" x="331.5" y="327.0137">&lt;Prozesswort&gt;</text><line style="stroke: #A80036; stroke-width: 1.5;" x1="133.5" x2="133.5" y1="63.9688" y2="83.9688"/><polygon fill="#A80036" points="129.5,73.9688,133.5,83.9688,137.5,73.9688,133.5,77.9688" style="stroke: #A80036; stroke-width: 1.0;"/><line style="stroke: #A80036; stroke-width: 1.5;" x1="219" x2="219" y1="63.9688" y2="83.9688"/><polygon fill="#A80036" points="215,73.9688,219,83.9688,223,73.9688,219,77.9688" style="stroke: #A80036; stroke-width: 1.0;"/><line style="stroke: #A80036; stroke-width: 1.5;" x1="300.5" x2="300.5" y1="63.9688" y2="83.9688"/><polygon fill="#A80036" points="296.5,73.9688,300.5,83.9688,304.5,73.9688,300.5,77.9688" style="stroke: #A80036; stroke-width: 1.0;"/><line style="stroke: #A80036; stroke-width: 1.5;" x1="133.5" x2="379" y1="63.9688" y2="63.9688"/><line style="stroke: #A80036; stroke-width: 1.5;" x1="133.5" x2="133.5" y1="117.9375" y2="137.9375"/><polygon fill="#A80036" points="129.5,127.9375,133.5,137.9375,137.5,127.9375,133.5,131.9375" style="stroke: #A80036; stroke-width: 1.0;"/><line style="stroke: #A80036; stroke-width: 1.5;" x1="219" x2="219" y1="117.9375" y2="137.9375"/><polygon fill="#A80036" points="215,127.9375,219,137.9375,223,127.9375,219,131.9375" style="stroke: #A80036; stroke-width: 1.0;"/><line style="stroke: #A80036; stroke-width: 1.5;" x1="300.5" x2="300.5" y1="117.9375" y2="137.9375"/><polygon fill="#A80036" points="296.5,127.9375,300.5,137.9375,304.5,127.9375,300.5,131.9375" style="stroke: #A80036; stroke-width: 1.0;"/><line style="stroke: #A80036; stroke-width: 1.5;" x1="133.5" x2="379" y1="137.9375" y2="137.9375"/><line style="stroke: #A80036; stroke-width: 1.5;" x1="379" x2="379" y1="43.9688" y2="63.9688"/><polygon fill="#A80036" points="375,53.9688,379,63.9688,383,53.9688,379,57.9688" style="stroke: #A80036; stroke-width: 1.0;"/><line style="stroke: #A80036; stroke-width: 1.5;" x1="46.5" x2="46.5" y1="157.9375" y2="194.9219"/><polygon fill="#A80036" points="42.5,184.9219,46.5,194.9219,50.5,184.9219,46.5,188.9219" style="stroke: #A80036; stroke-width: 1.0;"/><line style="stroke: #A80036; stroke-width: 1.5;" x1="184.5" x2="184.5" y1="157.9375" y2="177.9375"/><polygon fill="#A80036" points="180.5,167.9375,184.5,177.9375,188.5,167.9375,184.5,171.9375" style="stroke: #A80036; stroke-width: 1.0;"/><line style="stroke: #A80036; stroke-width: 1.5;" x1="367" x2="367" y1="157.9375" y2="177.9375"/><polygon fill="#A80036" points="363,167.9375,367,177.9375,371,167.9375,367,171.9375" style="stroke: #A80036; stroke-width: 1.0;"/><line style="stroke: #A80036; stroke-width: 1.5;" x1="46.5" x2="379" y1="157.9375" y2="157.9375"/><line style="stroke: #A80036; stroke-width: 1.5;" x1="46.5" x2="46.5" y1="194.9219" y2="231.9063"/><polygon fill="#A80036" points="42.5,221.9063,46.5,231.9063,50.5,221.9063,46.5,225.9063" style="stroke: #A80036; stroke-width: 1.0;"/><line style="stroke: #A80036; stroke-width: 1.5;" x1="184.5" x2="184.5" y1="211.9063" y2="231.9063"/><polygon fill="#A80036" points="180.5,221.9063,184.5,231.9063,188.5,221.9063,184.5,225.9063" style="stroke: #A80036; stroke-width: 1.0;"/><line style="stroke: #A80036; stroke-width: 1.5;" x1="367" x2="367" y1="211.9063" y2="231.9063"/><polygon fill="#A80036" points="363,221.9063,367,231.9063,371,221.9063,367,225.9063" style="stroke: #A80036; stroke-width: 1.0;"/><line style="stroke: #A80036; stroke-width: 1.5;" x1="46.5" x2="379" y1="231.9063" y2="231.9063"/><line style="stroke: #A80036; stroke-width: 1.5;" x1="379" x2="379" y1="137.9375" y2="157.9375"/><polygon fill="#A80036" points="375,147.9375,379,157.9375,383,147.9375,379,151.9375" style="stroke: #A80036; stroke-width: 1.0;"/><line style="stroke: #A80036; stroke-width: 1.5;" x1="379" x2="379" y1="231.9063" y2="251.9063"/><polygon fill="#A80036" points="375,241.9063,379,251.9063,383,241.9063,379,245.9063" style="stroke: #A80036; stroke-width: 1.0;"/><line style="stroke: #A80036; stroke-width: 1.5;" x1="379" x2="379" y1="285.875" y2="305.875"/><polygon fill="#A80036" points="375,295.875,379,305.875,383,295.875,379,299.875" style="stroke: #A80036; stroke-width: 1.0;"/></g></svg>