<?xml version="1.0" encoding="UTF-8" standalone="no"?><svg xmlns="http://www.w3.org/2000/svg" xmlns:xlink="http://www.w3.org/1999/xlink" contentScriptType="application/ecmascript" contentStyleType="text/css" height="287px" preserveAspectRatio="none" style="width:629px;height:287px;" version="1.1" viewBox="0 0 629 287" width="629px" zoomAndPan="magnify"><defs><filter height="300%" id="fqe25wx" width="300%" x="-1" y="-1"><feGaussianBlur result="blurOut" stdDeviation="2.0"/><feColorMatrix in="blurOut" result="blurOut2" type="matrix" values="0 0 0 0 0 0 0 0 0 0 0 0 0 0 0 0 0 0 .4 0"/><feOffset dx="4.0" dy="4.0" in="blurOut2" result="blurOut3"/><feBlend in="SourceGraphic" in2="blurOut3" mode="normal"/></filter></defs><g><rect fill="#FEFECE" filter="url(#fqe25wx)" height="50" rx="12.5" ry="12.5" style="stroke: #A80036; stroke-width: 1.5;" width="220" x="400.5" y="8"/><line style="stroke: #A80036; stroke-width: 1.5;" x1="400.5" x2="620.5" y1="34.2969" y2="34.2969"/><text fill="#000000" font-family="sans-serif" font-size="14" lengthAdjust="spacingAndGlyphs" textLength="200" x="410.5" y="25.9951">Das System &lt;Systemname&gt;</text><rect fill="#FEFECE" filter="url(#fqe25wx)" height="50" rx="12.5" ry="12.5" style="stroke: #A80036; stroke-width: 1.5;" width="149" x="436" y="118"/><line style="stroke: #A80036; stroke-width: 1.5;" x1="436" x2="585" y1="144.2969" y2="144.2969"/><text fill="#000000" font-family="sans-serif" font-size="14" lengthAdjust="spacingAndGlyphs" textLength="129" x="446" y="135.9951">muss | sollte | wird</text><rect fill="#FEFECE" filter="url(#fqe25wx)" height="50" rx="12.5" ry="12.5" style="stroke: #A80036; stroke-width: 1.5;" width="86" x="77.5" y="8"/><line style="stroke: #A80036; stroke-width: 1.5;" x1="77.5" x2="163.5" y1="34.2969" y2="34.2969"/><text fill="#000000" font-family="sans-serif" font-size="14" lengthAdjust="spacingAndGlyphs" textLength="66" x="87.5" y="25.9951">fähig sein</text><rect fill="#FEFECE" filter="url(#fqe25wx)" height="50" rx="12.5" ry="12.5" style="stroke: #A80036; stroke-width: 1.5;" width="229" x="6" y="118"/><line style="stroke: #A80036; stroke-width: 1.5;" x1="6" x2="235" y1="144.2969" y2="144.2969"/><text fill="#000000" font-family="sans-serif" font-size="14" lengthAdjust="spacingAndGlyphs" textLength="209" x="16" y="135.9951">&lt;Objekt &amp; Objektergänzung&gt;</text><rect fill="#FEFECE" filter="url(#fqe25wx)" height="50" rx="12.5" ry="12.5" style="stroke: #A80036; stroke-width: 1.5;" width="130" x="270.5" y="118"/><line style="stroke: #A80036; stroke-width: 1.5;" x1="270.5" x2="400.5" y1="144.2969" y2="144.2969"/><text fill="#000000" font-family="sans-serif" font-size="14" lengthAdjust="spacingAndGlyphs" textLength="110" x="280.5" y="135.9951">&lt;Prozesswort&gt;</text><rect fill="#FEFECE" filter="url(#fqe25wx)" height="50" rx="12.5" ry="12.5" style="stroke: #A80036; stroke-width: 1.5;" width="50" x="485.5" y="228"/><line style="stroke: #A80036; stroke-width: 1.5;" x1="485.5" x2="535.5" y1="254.2969" y2="254.2969"/><text fill="#000000" font-family="sans-serif" font-size="14" lengthAdjust="spacingAndGlyphs" textLength="26" x="497.5" y="245.9951">leer</text><path d="M510.5,58.2362 C510.5,74.4464 510.5,95.5926 510.5,112.7087 " fill="none" style="stroke: #A80036; stroke-width: 1.0;"/><polygon fill="#A80036" points="510.5,117.8812,514.5,108.8812,510.5,112.8812,506.5,108.8812,510.5,117.8812" style="stroke: #A80036; stroke-width: 1.0;"/><path d="M510.5,168.2362 C510.5,184.4464 510.5,205.5926 510.5,222.7087 " fill="none" style="stroke: #A80036; stroke-width: 1.0;"/><polygon fill="#A80036" points="510.5,227.8812,514.5,218.8812,510.5,222.8812,506.5,218.8812,510.5,227.8812" style="stroke: #A80036; stroke-width: 1.0;"/><path d="M120.5,58.2362 C120.5,74.4464 120.5,95.5926 120.5,112.7087 " fill="none" style="stroke: #A80036; stroke-width: 1.0;"/><polygon fill="#A80036" points="120.5,117.8812,124.5,108.8812,120.5,112.8812,116.5,108.8812,120.5,117.8812" style="stroke: #A80036; stroke-width: 1.0;"/><path d="M235.1387,143 C245.154,143 255.1693,143 265.1846,143 " fill="none" style="stroke: #A80036; stroke-width: 1.0;"/><polygon fill="#A80036" points="270.422,143,261.422,139,265.422,143,261.422,147,270.422,143" style="stroke: #A80036; stroke-width: 1.0;"/></g></svg>