<?xml version="1.0" encoding="UTF-8" standalone="no"?><svg xmlns="http://www.w3.org/2000/svg" xmlns:xlink="http://www.w3.org/1999/xlink" contentScriptType="application/ecmascript" contentStyleType="text/css" height="397px" preserveAspectRatio="none" style="width:409px;height:397px;" version="1.1" viewBox="0 0 409 397" width="409px" zoomAndPan="magnify"><defs><filter height="300%" id="fkp8s31" width="300%" x="-1" y="-1"><feGaussianBlur result="blurOut" stdDeviation="2.0"/><feColorMatrix in="blurOut" result="blurOut2" type="matrix" values="0 0 0 0 0 0 0 0 0 0 0 0 0 0 0 0 0 0 .4 0"/><feOffset dx="4.0" dy="4.0" in="blurOut2" result="blurOut3"/><feBlend in="SourceGraphic" in2="blurOut3" mode="normal"/></filter></defs><g><rect fill="#FEFECE" filter="url(#fkp8s31)" height="50" rx="12.5" ry="12.5" style="stroke: #A80036; stroke-width: 1.5;" width="220" x="10.5" y="8"/><line style="stroke: #A80036; stroke-width: 1.5;" x1="10.5" x2="230.5" y1="34.2969" y2="34.2969"/><text fill="#000000" font-family="sans-serif" font-size="14" lengthAdjust="spacingAndGlyphs" textLength="200" x="20.5" y="25.9951">Das System &lt;Systemname&gt;</text><rect fill="#FEFECE" filter="url(#fkp8s31)" height="50" rx="12.5" ry="12.5" style="stroke: #A80036; stroke-width: 1.5;" width="149" x="46" y="118"/><line style="stroke: #A80036; stroke-width: 1.5;" x1="46" x2="195" y1="144.2969" y2="144.2969"/><text fill="#000000" font-family="sans-serif" font-size="14" lengthAdjust="spacingAndGlyphs" textLength="129" x="56" y="135.9951">muss | sollte | wird</text><rect fill="#FEFECE" filter="url(#fkp8s31)" height="50" rx="12.5" ry="12.5" style="stroke: #A80036; stroke-width: 1.5;" width="50" x="95.5" y="228"/><line style="stroke: #A80036; stroke-width: 1.5;" x1="95.5" x2="145.5" y1="254.2969" y2="254.2969"/><text fill="#000000" font-family="sans-serif" font-size="14" lengthAdjust="spacingAndGlyphs" textLength="0" x="122.5" y="245.9951"/><rect fill="#FEFECE" filter="url(#fkp8s31)" height="50" rx="12.5" ry="12.5" style="stroke: #A80036; stroke-width: 1.5;" width="229" x="6" y="338"/><line style="stroke: #A80036; stroke-width: 1.5;" x1="6" x2="235" y1="364.2969" y2="364.2969"/><text fill="#000000" font-family="sans-serif" font-size="14" lengthAdjust="spacingAndGlyphs" textLength="209" x="16" y="355.9951">&lt;Objekt &amp; Objektergänzung&gt;</text><rect fill="#FEFECE" filter="url(#fkp8s31)" height="50" rx="12.5" ry="12.5" style="stroke: #A80036; stroke-width: 1.5;" width="130" x="270.5" y="338"/><line style="stroke: #A80036; stroke-width: 1.5;" x1="270.5" x2="400.5" y1="364.2969" y2="364.2969"/><text fill="#000000" font-family="sans-serif" font-size="14" lengthAdjust="spacingAndGlyphs" textLength="110" x="280.5" y="355.9951">&lt;Prozesswort&gt;</text><path d="M120.5,58.2362 C120.5,74.4464 120.5,95.5926 120.5,112.7087 " fill="none" style="stroke: #A80036; stroke-width: 1.0;"/><polygon fill="#A80036" points="120.5,117.8812,124.5,108.8812,120.5,112.8812,116.5,108.8812,120.5,117.8812" style="stroke: #A80036; stroke-width: 1.0;"/><path d="M120.5,168.2362 C120.5,184.4464 120.5,205.5926 120.5,222.7087 " fill="none" style="stroke: #A80036; stroke-width: 1.0;"/><polygon fill="#A80036" points="120.5,227.8812,124.5,218.8812,120.5,222.8812,116.5,218.8812,120.5,227.8812" style="stroke: #A80036; stroke-width: 1.0;"/><path d="M120.5,278.2362 C120.5,294.4464 120.5,315.5926 120.5,332.7087 " fill="none" style="stroke: #A80036; stroke-width: 1.0;"/><polygon fill="#A80036" points="120.5,337.8812,124.5,328.8812,120.5,332.8812,116.5,328.8812,120.5,337.8812" style="stroke: #A80036; stroke-width: 1.0;"/><path d="M235.1387,363 C245.154,363 255.1693,363 265.1846,363 " fill="none" style="stroke: #A80036; stroke-width: 1.0;"/><polygon fill="#A80036" points="270.422,363,261.422,359,265.422,363,261.422,367,270.422,363" style="stroke: #A80036; stroke-width: 1.0;"/></g></svg>